<?xml version="1.0" encoding="UTF-8" standalone="no"?>
<svg
   width="64"
   height="64"
   viewBox="0 0 24 24"
   fill="none"
   stroke="currentColor"
   stroke-width="1.6"
   stroke-linecap="round"
   stroke-linejoin="round"
   version="1.1"
   id="svg4"
   sodipodi:docname="MMap.svg"
   xml:space="preserve"
   inkscape:version="1.3 (0e150ed6c4, 2023-07-21)"
   xmlns:inkscape="http://www.inkscape.org/namespaces/inkscape"
   xmlns:sodipodi="http://sodipodi.sourceforge.net/DTD/sodipodi-0.dtd"
   xmlns="http://www.w3.org/2000/svg"
   xmlns:svg="http://www.w3.org/2000/svg"><defs
     id="defs4"><linearGradient
       id="paint0_linear_72095_9353"
       x1="-4.7522"
       y1="-1.7126"
       x2="15.6899"
       y2="42.4296"
       gradientUnits="userSpaceOnUse"><stop
         stop-color="#F97DBD"
         id="stop1"
         offset="0"
         style="stop-color:#f97d7d;stop-opacity:1;" /><stop
         offset="1"
         stop-color="#D7257D"
         id="stop2"
         style="stop-color:#bf2121;stop-opacity:1;" /></linearGradient></defs><sodipodi:namedview
     id="namedview4"
     pagecolor="#ffffff"
     bordercolor="#000000"
     borderopacity="0.25"
     inkscape:showpageshadow="2"
     inkscape:pageopacity="0.0"
     inkscape:pagecheckerboard="0"
     inkscape:deskcolor="#d1d1d1"
     inkscape:zoom="19.158657"
     inkscape:cx="4.932496"
     inkscape:cy="34.736255"
     inkscape:window-width="3840"
     inkscape:window-height="2071"
     inkscape:window-x="-9"
     inkscape:window-y="-9"
     inkscape:window-maximized="1"
     inkscape:current-layer="svg4" /><path
     style="fill:#cf8bff;fill-opacity:1;stroke:none;stroke-width:0.13125;stroke-dasharray:none;stroke-opacity:1"
     d="m 5.2456702,18.085818 -1.585445,-2.642408 0.078294,-0.802509 c 0,0 0.7829357,-0.80251 0.9199495,-0.822083 0.1370137,-0.01957 1.2526976,0.03915 1.2526976,0.03915 l 0.7242157,0.822082 0.039147,1.193978 z"
     id="path9" /><rect
     style="fill:#35b3ff;fill-opacity:1;stroke:none;stroke-width:0.126448;stroke-dasharray:none;stroke-opacity:1"
     id="rect6"
     width="7.7651076"
     height="5.744483"
     x="-0.6815291"
     y="7.7819371"
     transform="matrix(0.97296831,-0.23093867,0.22575199,0.97418481,0,0)" /><path
     style="fill:#69ff30;fill-opacity:1;stroke:none;stroke-width:0.13125;stroke-dasharray:none;stroke-opacity:1"
     d="M 2.2509406,12.135506 9.7671247,10.43262 9.9432855,11.607024 2.6032617,13.251189 Z"
     id="path8" /><path
     style="fill:#ffffff;fill-opacity:1;stroke:none;stroke-width:0.13125;stroke-dasharray:none;stroke-opacity:1"
     d="M 3.1513168,11.841905 4.5214545,9.8258453 5.5196977,10.413047 6.4592209,8.1816799 8.1033863,9.3560835 8.5535745,10.784942 Z"
     id="path7" /><!-- Large map pin --><!-- Photo frame (mountains + sun) --><!-- Curved route --><!-- Route nodes --><path
     style="fill:#000000;stroke:none;stroke-width:0.13125;stroke-dasharray:none"
     d="M 6.3864485,20.527777 C 5.9557173,20.496338 5.2392642,20.410266 4.8639084,20.344877 2.8722373,19.997906 2.0461747,19.424022 2.3176441,18.575933 c 0.071776,-0.224246 0.4245981,-0.579832 0.7372048,-0.742985 0.2541783,-0.132659 0.5995514,-0.267885 0.6841948,-0.267885 0.058082,0 0.2847872,0.280707 0.2911637,0.360517 0.00189,0.02337 -0.1198188,0.0903 -0.2889803,0.158967 -0.6229012,0.252844 -0.8919935,0.480034 -0.8919935,0.753096 0,0.311496 0.6829329,0.618637 1.8455038,0.829993 0.6067301,0.110304 1.1907212,0.167957 2.0700975,0.204368 0.3857423,0.01597 0.7144729,0.03715 0.7305116,0.04706 0.043503,0.02689 0.036685,0.548215 -0.0078,0.592651 -0.03483,0.03483 -0.709285,0.04466 -1.101151,0.01606 z m 1.8015629,-0.02748 c -0.054325,-0.05433 -0.069295,-0.486092 -0.019577,-0.564648 0.020558,-0.03248 0.1388349,-0.05041 0.453215,-0.06872 1.0709153,-0.06235 2.1965176,-0.241257 3.3782056,-0.53695 0.857218,-0.214501 1.886162,-0.53902 3.311539,-1.044425 1.191175,-0.422364 1.951942,-0.675924 2.517176,-0.838962 0.819975,-0.236518 1.789445,-0.447368 1.974957,-0.429531 0.0916,0.0089 0.106028,0.02437 0.151597,0.163525 0.07375,0.225222 0.09128,0.333159 0.06158,0.379269 -0.01491,0.02315 -0.272089,0.09204 -0.592044,0.1586 -1.19611,0.248817 -2.303042,0.579796 -4.195174,1.254382 -1.225575,0.436945 -1.752916,0.609752 -2.552946,0.836583 -1.403618,0.397968 -2.658919,0.626966 -3.8750308,0.706897 -0.6084444,0.03999 -0.5561149,0.04135 -0.6134953,-0.01602 z M 4.8177711,18.948806 C 4.1161292,18.878189 3.9083884,18.627095 4.4197329,18.467713 l 0.1822029,-0.0568 2.469e-4,-0.221818 2.458e-4,-0.221817 L 4.3891582,17.64715 C 3.9792118,17.03181 3.7178997,16.50847 3.5239551,15.914376 3.2482287,15.069763 3.5233809,14.243054 4.2328324,13.784513 4.4850896,13.62147 4.7492279,13.536162 5.0693867,13.514331 c 0.3428801,-0.02338 0.5885599,0.0242 0.9017892,0.174649 0.3272242,0.157168 0.6235912,0.451042 0.792852,0.786179 0.1936811,0.383486 0.2348101,0.839883 0.1157273,1.284146 -0.1470038,0.548409 -0.4938383,1.284138 -0.8788812,1.864343 -0.206941,0.31183 -0.2094824,0.318189 -0.2234252,0.559034 -0.012902,0.222786 -0.00922,0.243642 0.04368,0.243916 0.031782,1.64e-4 0.128348,0.03317 0.2145983,0.07332 0.2343043,0.109099 0.2505522,0.220953 0.047012,0.323589 -0.2206877,0.111285 -0.8172073,0.170366 -1.2649899,0.125294 z m 0.6226814,-1.50031 c 0.4220615,-0.560291 0.7395123,-1.124726 0.9031964,-1.605899 0.075828,-0.222918 0.088931,-0.309041 0.088931,-0.584409 0,-0.286491 -0.00933,-0.342947 -0.082917,-0.499906 C 6.1751516,14.3859 5.7983047,14.099943 5.379412,14.022042 c -0.3945539,-0.07337 -0.8276434,0.0837 -1.1293579,0.409578 -0.5964417,0.644229 -0.3737006,1.574904 0.7332232,3.06361 0.1035106,0.13922 0.1976922,0.25341 0.2092768,0.253757 0.011579,3.28e-4 0.1231388,-0.134875 0.2478962,-0.300491 z M 4.9820129,15.921495 C 4.4944872,15.769023 4.3309177,15.177082 4.6735863,14.805329 c 0.1688721,-0.183204 0.2762781,-0.233991 0.4979051,-0.235438 0.5294628,-0.0034 0.8544858,0.534831 0.6141499,1.017122 -0.089971,0.180557 -0.2431101,0.299467 -0.4449777,0.34553 -0.1724119,0.03934 -0.2002786,0.03848 -0.3586507,-0.01111 z m 5.1083691,1.954678 c -0.2079467,-0.126807 -0.2146957,-0.414489 -0.01293,-0.551097 0.22644,-0.153313 0.522892,0.0022 0.522892,0.274309 0,0.101856 -0.01979,0.145411 -0.104574,0.230203 -0.122407,0.122408 -0.25589,0.137747 -0.405385,0.04659 z M 8.83174,17.792083 c -0.1488068,-0.02579 -1.6145442,-0.103995 -1.9493075,-0.103995 -0.2031259,0 -0.3762585,-0.01122 -0.3847381,-0.02494 -0.00851,-0.01372 0.043231,-0.12791 0.1149121,-0.253757 l 0.1303259,-0.228809 0.5228227,0.0052 c 0.4804237,0.0047 1.7352681,0.08105 1.9752531,0.12013 0.1454252,0.02368 0.2212819,0.11177 0.2212819,0.25696 0,0.181599 -0.1017503,0.249542 -0.3655588,0.244112 -0.1119111,-0.0024 -0.2311533,-0.009 -0.2649878,-0.01485 z m 2.309667,-0.113786 c -0.0939,-0.0939 -0.10286,-0.219749 -0.02303,-0.323532 0.04037,-0.05249 0.133537,-0.09201 0.345348,-0.1465 0.343294,-0.08832 0.632498,-0.22286 0.781883,-0.36375 0.336481,-0.317341 -0.09769,-0.644841 -1.168511,-0.881429 -0.372655,-0.08234 -0.457141,-0.121921 -0.50457,-0.236426 -0.04637,-0.111946 -0.0051,-0.230227 0.105826,-0.302874 0.07649,-0.05012 0.09648,-0.04999 0.378163,0.0025 0.705189,0.131394 1.285202,0.364995 1.55329,0.625593 0.207551,0.201749 0.279093,0.348704 0.27995,0.57505 0.0012,0.317235 -0.198205,0.596039 -0.582328,0.814188 -0.22388,0.127145 -0.678379,0.278745 -0.896895,0.299166 -0.174675,0.01633 -0.195665,0.01146 -0.269136,-0.06198 z m 9.432343,-0.210133 c -0.01946,-0.01946 -0.05944,-0.137459 -0.08886,-0.262229 -0.04649,-0.197205 -0.0477,-0.232377 -0.0092,-0.269121 0.02671,-0.02552 0.245381,-0.06831 0.55177,-0.108001 1.433713,-0.185701 1.936535,-0.407301 1.818457,-0.801414 -0.0447,-0.149178 -0.298975,-0.415164 -0.551037,-0.576408 -0.506925,-0.324274 -1.424138,-0.634096 -2.482375,-0.838509 -0.542273,-0.104751 -0.545994,-0.108886 -0.365235,-0.40645 0.129813,-0.213696 0.03702,-0.209733 0.826249,-0.03529 1.979027,0.437421 3.084844,1.135846 3.146365,1.987221 0.01979,0.273812 -0.04224,0.435416 -0.237043,0.617636 -0.33902,0.317113 -0.901984,0.497528 -2.078485,0.666099 -0.506474,0.07257 -0.485531,0.07153 -0.530585,0.02646 z M 9.4221583,15.673393 C 8.8829069,15.576085 8.6284746,15.512571 8.3396053,15.403157 8.055267,15.295452 7.9146149,15.212934 7.7715514,15.069872 7.6383605,14.936679 7.5859588,14.805329 7.5863145,14.605549 c 9.357e-4,-0.526602 0.6940531,-1.007392 1.8850282,-1.307574 0.4466136,-0.112573 0.5859813,-0.115751 0.6763883,-0.01542 0.09138,0.101396 0.09439,0.204753 0.009,0.30631 -0.06502,0.07727 -0.128614,0.10572 -0.3635227,0.16265 -0.6938425,0.168142 -1.1217264,0.338018 -1.4381765,0.570975 -0.3677742,0.27074 -0.3061108,0.42635 0.2460851,0.620996 0.2418423,0.08525 0.8280072,0.219614 1.1786874,0.270189 0.3092807,0.0446 0.4340817,0.288515 0.2338377,0.457009 -0.1111547,0.09353 -0.08869,0.09343 -0.591419,0.0027 z M 10.794776,13.53195 c -0.209424,-0.107646 -0.123811,-0.419791 0.128534,-0.46863 0.2315,-0.0448 1.060234,-0.08392 1.118406,-0.05279 0.09648,0.05163 0.197828,0.239054 0.176096,0.325643 -0.02927,0.116613 -0.154682,0.158434 -0.540922,0.180378 -0.194546,0.01111 -0.45753,0.02679 -0.584409,0.03497 -0.139772,0.009 -0.257099,0.0013 -0.297705,-0.01957 z M 2.4174189,13.490763 C 2.2866724,13.419625 2.3155033,13.508225 1.9265803,11.982415 1.8274058,11.59332 1.5515069,10.510485 1.3134761,9.5761119 1.0754476,8.6417394 0.8806961,7.8309772 0.8806961,7.7744179 c 0,-0.2006933 0.036059,-0.2146384 1.3264476,-0.5129597 4.5784087,-1.0584707 6.2837732,-1.446101 6.3620507,-1.446101 0.1906588,0 0.2328216,0.081511 0.4136799,0.7997176 0.091589,0.3637181 0.4104685,1.6187728 0.7086173,2.7890104 0.3535664,1.3877558 0.5354294,2.1542398 0.5229394,2.2039978 -0.04587,0.182729 -0.04644,0.182911 -2.1558581,0.670577 -2.4025072,0.555424 -2.6074858,0.602589 -3.4714897,0.798767 -1.6299308,0.370086 -2.0267674,0.458211 -2.0581585,0.457053 -0.018372,-6.55e-4 -0.06855,-0.02035 -0.1115093,-0.04372 z m 1.5998394,-0.710787 c 0.702496,-0.161898 1.9900926,-0.459914 2.8613237,-0.662259 0.8712311,-0.202345 1.8712639,-0.432505 2.222294,-0.511465 0.4681089,-0.105295 0.6382369,-0.155358 0.6382369,-0.187807 0,-0.03881 -0.2568709,-1.063578 -0.922613,-3.6806889 -0.3610881,-1.419482 -0.373241,-1.4610233 -0.4274065,-1.4610233 -0.027647,0 -0.6798729,0.1458235 -1.4493856,0.3240542 C 6.1701938,6.7790165 5.4229416,6.951504 5.2791467,6.9840931 4.6573561,7.1250122 3.7574951,7.3315917 2.9568878,7.5172091 2.483208,7.6270289 1.9260971,7.7552966 1.7188619,7.8022456 1.5116279,7.8491982 1.3422844,7.9023299 1.3425444,7.9203359 c 2.457e-4,0.018006 0.027387,0.1395427 0.060292,0.270093 0.092109,0.3654998 0.6551371,2.5744721 0.8449937,3.3152311 0.09322,0.363717 0.2214308,0.865463 0.2849101,1.114991 0.084016,0.330257 0.1279097,0.453686 0.1613341,0.453686 0.025249,0 0.6206871,-0.132462 1.323184,-0.294361 z M 2.8818251,12.282042 2.8138301,12.006878 3.4529662,10.948861 C 3.8044913,10.366951 4.1286176,9.8539028 4.1732473,9.808752 4.2720443,9.708809 4.4769857,9.64914 4.6317035,9.6752794 c 0.068562,0.011579 0.2174681,0.092747 0.370676,0.2020477 0.1408435,0.1004742 0.268381,0.1826879 0.2834155,0.1826879 0.033921,0 0.067759,-0.073289 0.6391361,-1.3841281 C 6.0466013,8.3967543 6.1690726,8.1421956 6.1970894,8.1102019 6.2626741,8.035307 6.472043,7.9391807 6.5709931,7.9385333 6.76022,7.9373518 6.8855895,8.0161101 7.5594485,8.55996 7.942386,8.8690186 8.4215136,9.2533751 8.6241752,9.4140878 L 8.99265,9.7062929 9.1673338,10.394409 c 0.096079,0.378465 0.1705994,0.691823 0.1656088,0.696351 -0.00496,0.0045 -0.1128799,0.02994 -0.2397617,0.05645 -0.2695554,0.05635 -1.2178778,0.276126 -2.9374261,0.680777 -1.938218,0.456107 -3.0062765,0.702053 -3.1101333,0.71618 l -0.095807,0.01303 z M 3.9711446,11.44484 c 0.2089814,-0.189254 0.2973737,-0.216305 0.4172362,-0.127687 0.1539805,0.113849 0.1928552,0.09093 0.3524939,-0.207834 0.064191,-0.120131 0.1133762,-0.175687 0.1616213,-0.182538 0.08007,-0.01134 0.319646,0.07265 0.6636036,0.232725 0.2616914,0.12179 0.3435938,0.115526 0.3435938,-0.0263 0,-0.05775 -0.072626,-0.127875 -0.338342,-0.326639 -0.50638,-0.378795 -0.9653702,-0.685036 -1.0267287,-0.685036 -0.029963,0 -0.08287,0.03114 -0.1175704,0.06921 -0.063009,0.06911 -0.7686089,1.192887 -0.7994495,1.273257 -0.021775,0.05676 0.045688,0.133939 0.1170742,0.133939 0.031581,0 0.1334982,-0.06889 0.226477,-0.153095 z M 6.0809343,9.9600506 c 0.1599483,-0.1974182 0.2378844,-0.269136 0.2924717,-0.269136 0.022909,0 0.090644,0.043006 0.1505164,0.095571 0.081937,0.071941 0.1273674,0.090928 0.1837128,0.076785 0.062572,-0.015702 0.089061,-0.06295 0.1613507,-0.2878171 C 6.9485599,9.3279589 6.9624069,9.3056311 7.042005,9.2965052 7.105168,9.2892952 7.1735821,9.3205962 7.2953516,9.4125397 7.4978147,9.5654017 7.6242605,9.5984788 7.709894,9.5209775 7.8014479,9.4381193 7.7864193,9.3182521 7.6706093,9.2075839 7.433584,8.9810774 6.6733282,8.399291 6.6142122,8.3991764 c -0.035445,-6.85e-5 -0.08528,0.024102 -0.1107414,0.053699 -0.045641,0.053061 -0.5761862,1.2325602 -0.6591258,1.465361 -0.031889,0.08951 -0.033897,0.1302216 -0.00792,0.1614816 0.059441,0.07162 0.1093118,0.04721 0.2445373,-0.1196803 z M 2.9498035,9.7203385 C 2.4759359,9.6256181 2.1659592,9.2630019 2.1617047,8.7984173 2.1582783,8.4198289 2.3830658,8.0824817 2.7511566,7.9139653 2.8946927,7.8482506 2.9493616,7.8398147 3.1524191,7.8519959 3.9664009,7.9008389 4.3441445,8.7693525 3.8324159,9.415463 3.6558382,9.6384109 3.2467897,9.7797085 2.9498035,9.720342 Z M 3.4186639,9.2159383 C 3.5987578,9.0785743 3.6541734,8.9659094 3.6412136,8.7634793 3.6164495,8.3767056 3.2342103,8.1427568 2.8951854,8.3068769 2.476939,8.5093448 2.477043,9.0496288 2.8953497,9.2752103 c 0.1400129,0.075497 0.3826243,0.048016 0.523293,-0.059276 z"
     id="path4"
     sodipodi:nodetypes="cccssccsssccccsscssscsscssssscccccsssssscscscsccscscccccsscsccsccssscsscscsccssccccccscsccssscccccccsssssscsccccssccccsscsccccssccccccsssssssscccssssssssscccssssccscccssscssccscssccccscsscsccscccscccccscscscccccccscccccccc" /><g
     style="fill:none"
     id="g4"
     transform="matrix(0.32234765,0,0,0.40638197,8.6235571,-0.65097464)"><path
       d="M 21.2625,10.1783 C 17.5699,7.38867 12.508,7.26959 8.68827,9.8825 3.03756,13.7479 2.37962,21.8352 7.33123,26.5632 L 23.1367,41.6547 c 0.4831,0.4613 1.2434,0.4613 1.7265,0 L 40.6663,26.5638 C 45.6178,21.8355 44.9594,13.748 39.3083,9.88276 35.4874,7.26933 30.424,7.38942 26.7313,10.1811 l -2.7316,2.065 z"
       fill="url(#paint0_linear_72095_9353)"
       id="path1"
       style="fill:url(#paint0_linear_72095_9353)" /></g><circle
     style="fill:#ffd302;stroke:#020202;stroke-width:0.437625;stroke-dasharray:none;stroke-opacity:1;fill-opacity:1"
     id="path6"
     cx="3.0925968"
     cy="8.8080282"
     r="0.97866988" /></svg>
